<svg fill="#000000" xmlns="http://www.w3.org/2000/svg"  viewBox="0 0 50 50" width="100px" height="100px"><path fill="none" stroke="#000000" stroke-linecap="round" stroke-linejoin="round" stroke-miterlimit="10" stroke-width="2" d="M9,45h32c2.209,0,4-1.791,4-4V9c0-2.209-1.791-4-4-4H9C6.791,5,5,6.791,5,9v32C5,43.209,6.791,45,9,45z"/><path fill="none" stroke="#000000" stroke-miterlimit="10" stroke-width="2" d="M36.784,30.297C38.959,27.959,40,25.583,40,22.947C40,16.36,33.271,11,25,11s-15,5.359-15,11.947c0,5.906,5.337,10.852,12.545,11.788c0.488,0.104,1.154,0.316,1.322,0.725c0.151,0.372,0.098,0.955,0.048,1.331c0,0-0.175,1.039-0.214,1.26c-0.065,0.372-0.151,1.405,1.299,0.794C26.601,38.183,33.637,33.853,36.784,30.297z"/><path d="M18 27h-3c-.552 0-1-.448-1-1v-6c0-.552.448-1 1-1s1 .448 1 1v5h2c.552 0 1 .448 1 1S18.552 27 18 27zM22 26c0 .552-.448 1-1 1s-1-.448-1-1v-6c0-.552.448-1 1-1s1 .448 1 1V26zM29 26c0 .973-1.248 1.373-1.814.581L25 23.121V26c0 .552-.448 1-1 1s-1-.448-1-1v-6c0-.973 1.248-1.373 1.814-.581L27 23v-3c0-.552.448-1 1-1s1 .448 1 1V26zM34 22c.553 0 1 .448 1 1s-.447 1-1 1h-2v1h2c.552 0 1 .448 1 1s-.448 1-1 1h-3c-.552 0-1-.448-1-1v-6c0-.552.448-1 1-1h3c.552 0 1 .448 1 1s-.448 1-1 1h-2v1H34z"/></svg>